<svg width="352" height="136" viewBox="0 0 352 136" fill="none" xmlns="http://www.w3.org/2000/svg">
<rect width="352" height="136" fill="#1A1B1C"/>
<rect y="100" width="352" height="1" fill="#FCFCFC"/>
<rect width="80" height="35" transform="translate(272 101)" fill="#1A1B1C"/>
<path d="M297.366 124L293.586 114.2H291.85L288.084 124H289.988L290.828 121.718H294.608L295.448 124H297.366ZM292.732 116.566L294.048 120.15H291.416L292.732 116.566ZM304.463 124V122.39H299.885V114.2H298.023V124H304.463ZM311.73 124V122.39H307.152V114.2H305.29V124H311.73ZM316.737 124.112C319.579 124.112 321.679 121.984 321.679 119.1C321.679 116.216 319.579 114.088 316.737 114.088C313.881 114.088 311.781 116.216 311.781 119.1C311.781 121.984 313.881 124.112 316.737 124.112ZM316.723 122.502C314.945 122.502 313.643 121.06 313.643 119.1C313.643 117.14 314.945 115.684 316.723 115.684C318.515 115.684 319.817 117.14 319.817 119.1C319.817 121.06 318.515 122.502 316.723 122.502ZM326.55 124L328.636 117.07L330.722 124H332.542L335.468 114.2H333.606L331.562 121.27L329.42 114.2H327.838L325.71 121.27L323.68 114.2H321.804L324.744 124H326.55Z" fill="#FCFCFC"/>
<g opacity="0.7">
<rect width="68" height="35" transform="translate(191 101)" fill="#1A1B1C"/>
<path d="M211.116 124C213.832 124 216.142 122.376 216.142 119.1C216.142 115.824 213.832 114.2 211.116 114.2H207.938V124H211.116ZM209.786 115.796H210.962C212.656 115.796 214.266 116.678 214.266 119.1C214.266 121.522 212.656 122.39 210.962 122.39H209.786V115.796ZM223.988 124V122.39H219.158V119.772H222.91V118.176H219.158V115.796H223.834V114.2H217.31V124H223.988ZM226.999 124V117.098L231.255 124H233.243V114.2H231.395V121.116L227.153 114.2H225.151V124H226.999ZM239.15 124V119.926L242.524 114.2H240.536L238.226 118.204L235.93 114.2H233.928L237.302 119.926V124H239.15Z" fill="#FCFCFC"/>
</g>
<path d="M25.704 32L21.384 20.8H19.4L15.096 32H17.272L18.232 29.392H22.552L23.512 32H25.704ZM20.408 23.504L21.912 27.6H18.904L20.408 23.504ZM34.1351 32V30.16H28.9031V20.8H26.7751V32H34.1351ZM42.7601 32V30.16H37.5281V20.8H35.4001V32H42.7601ZM48.8025 32.128C52.0505 32.128 54.4505 29.696 54.4505 26.4C54.4505 23.104 52.0505 20.672 48.8025 20.672C45.5385 20.672 43.1385 23.104 43.1385 26.4C43.1385 29.696 45.5385 32.128 48.8025 32.128ZM48.7865 30.288C46.7545 30.288 45.2665 28.64 45.2665 26.4C45.2665 24.16 46.7545 22.496 48.7865 22.496C50.8345 22.496 52.3225 24.16 52.3225 26.4C52.3225 28.64 50.8345 30.288 48.7865 30.288ZM60.337 32L62.721 24.08L65.105 32H67.185L70.529 20.8H68.401L66.065 28.88L63.617 20.8H61.809L59.377 28.88L57.057 20.8H54.913L58.273 32H60.337ZM85.0165 32L80.6965 20.8H78.7125L74.4085 32H76.5845L77.5445 29.392H81.8645L82.8245 32H85.0165ZM79.7205 23.504L81.2245 27.6H78.2165L79.7205 23.504ZM86.0214 30.88C86.0214 30.3893 86.1547 30.048 86.4214 29.856C86.688 29.6533 87.0134 29.552 87.3974 29.552C87.7707 29.552 88.0907 29.6533 88.3574 29.856C88.624 30.048 88.7574 30.3893 88.7574 30.88C88.7574 31.3493 88.624 31.6907 88.3574 31.904C88.0907 32.1067 87.7707 32.208 87.3974 32.208C87.0134 32.208 86.688 32.1067 86.4214 31.904C86.1547 31.6907 86.0214 31.3493 86.0214 30.88ZM92.8719 32V20.8H90.7439V32H92.8719ZM94.8495 30.88C94.8495 30.3893 94.9828 30.048 95.2495 29.856C95.5162 29.6533 95.8415 29.552 96.2255 29.552C96.5988 29.552 96.9188 29.6533 97.1855 29.856C97.4522 30.048 97.5855 30.3893 97.5855 30.88C97.5855 31.3493 97.4522 31.6907 97.1855 31.904C96.9188 32.1067 96.5988 32.208 96.2255 32.208C95.8415 32.208 95.5162 32.1067 95.2495 31.904C94.9828 31.6907 94.8495 31.3493 94.8495 30.88ZM107.648 32V22.624H111.024V20.8H102.144V22.624H105.536V32H107.648ZM116.74 32.128C119.988 32.128 122.388 29.696 122.388 26.4C122.388 23.104 119.988 20.672 116.74 20.672C113.476 20.672 111.076 23.104 111.076 26.4C111.076 29.696 113.476 32.128 116.74 32.128ZM116.724 30.288C114.692 30.288 113.204 28.64 113.204 26.4C113.204 24.16 114.692 22.496 116.724 22.496C118.772 22.496 120.26 24.16 120.26 26.4C120.26 28.64 118.772 30.288 116.724 30.288ZM137.173 32L132.853 20.8H130.869L126.565 32H128.741L129.701 29.392H134.021L134.981 32H137.173ZM131.877 23.504L133.381 27.6H130.373L131.877 23.504ZM142.925 32.128C145.677 32.128 147.725 30.544 147.949 28.224H145.837C145.645 29.44 144.461 30.288 142.925 30.288C140.973 30.288 139.501 28.944 139.501 26.4C139.501 23.856 140.973 22.496 142.925 22.496C144.429 22.496 145.613 23.344 145.773 24.576H147.981C147.677 22.256 145.629 20.672 142.925 20.672C139.997 20.672 137.373 22.592 137.373 26.4C137.373 30.208 139.949 32.128 142.925 32.128ZM154.55 32.128C157.302 32.128 159.35 30.544 159.574 28.224H157.462C157.27 29.44 156.086 30.288 154.55 30.288C152.598 30.288 151.126 28.944 151.126 26.4C151.126 23.856 152.598 22.496 154.55 22.496C156.054 22.496 157.238 23.344 157.398 24.576H159.606C159.302 22.256 157.254 20.672 154.55 20.672C151.622 20.672 148.998 22.592 148.998 26.4C148.998 30.208 151.574 32.128 154.55 32.128ZM168.735 32V30.16H163.215V27.168H167.503V25.344H163.215V22.624H168.559V20.8H161.103V32H168.735ZM174.065 32.128C176.529 32.128 178.241 30.864 178.241 28.784C178.241 24.416 172.145 26.272 172.145 23.792C172.145 23.008 172.833 22.496 173.937 22.496C175.121 22.496 175.889 23.152 175.985 24.128H178.001C177.905 22.032 176.305 20.672 173.937 20.672C171.664 20.672 170.081 21.952 170.081 23.792C170.081 28.08 176.097 26.416 176.097 28.816C176.097 29.808 175.265 30.288 174.065 30.288C172.721 30.288 171.889 29.488 171.777 28.24H169.745C169.857 30.592 171.521 32.128 174.065 32.128ZM183.44 32.128C185.904 32.128 187.616 30.864 187.616 28.784C187.616 24.416 181.52 26.272 181.52 23.792C181.52 23.008 182.208 22.496 183.312 22.496C184.496 22.496 185.264 23.152 185.36 24.128H187.376C187.28 22.032 185.68 20.672 183.312 20.672C181.039 20.672 179.456 21.952 179.456 23.792C179.456 28.08 185.472 26.416 185.472 28.816C185.472 29.808 184.64 30.288 183.44 30.288C182.096 30.288 181.264 29.488 181.152 28.24H179.12C179.232 30.592 180.896 32.128 183.44 32.128ZM197.563 32V27.344L201.419 20.8H199.147L196.507 25.376L193.883 20.8H191.595L195.451 27.344V32H197.563ZM206.803 32.128C210.051 32.128 212.451 29.696 212.451 26.4C212.451 23.104 210.051 20.672 206.803 20.672C203.539 20.672 201.139 23.104 201.139 26.4C201.139 29.696 203.539 32.128 206.803 32.128ZM206.787 30.288C204.755 30.288 203.267 28.64 203.267 26.4C203.267 24.16 204.755 22.496 206.787 22.496C208.835 22.496 210.323 24.16 210.323 26.4C210.323 28.64 208.835 30.288 206.787 30.288ZM218.295 32.128C220.919 32.128 222.695 30.672 222.695 27.952V20.8H220.711V27.968C220.711 29.504 219.719 30.272 218.295 30.272C216.871 30.272 215.895 29.504 215.895 27.968V20.8H213.895V27.952C213.895 30.672 215.687 32.128 218.295 32.128ZM232.779 29.008C232.699 27.984 232.203 27.152 231.435 26.672C232.363 26.192 232.939 25.408 232.939 24.256C232.939 22.224 231.562 20.8 229.227 20.8H224.635V32H226.763V27.792H229.179C230.011 27.792 230.603 28.4 230.683 29.248L230.955 32H233.051L232.779 29.008ZM229.131 22.576C230.379 22.576 230.891 23.36 230.891 24.256C230.891 25.152 230.379 25.968 229.131 25.968H226.763V22.576H229.131ZM243.784 32.128C246.536 32.128 248.584 30.544 248.808 28.224H246.696C246.504 29.44 245.32 30.288 243.784 30.288C241.832 30.288 240.36 28.944 240.36 26.4C240.36 23.856 241.832 22.496 243.784 22.496C245.288 22.496 246.472 23.344 246.632 24.576H248.84C248.536 22.256 246.488 20.672 243.784 20.672C240.856 20.672 238.232 22.592 238.232 26.4C238.232 30.208 240.808 32.128 243.784 32.128ZM259.673 32L255.353 20.8H253.369L249.065 32H251.241L252.201 29.392H256.521L257.481 32H259.673ZM254.377 23.504L255.881 27.6H252.873L254.377 23.504ZM262.822 32V24.576L265.878 32H267.478L270.518 24.576V32H272.502V20.8H270.07L266.678 29.072L263.286 20.8H260.838V32H262.822ZM282.282 32V30.16H276.762V27.168H281.05V25.344H276.762V22.624H282.106V20.8H274.65V32H282.282ZM292.075 29.008C291.995 27.984 291.499 27.152 290.731 26.672C291.659 26.192 292.235 25.408 292.235 24.256C292.235 22.224 290.859 20.8 288.523 20.8H283.931V32H286.059V27.792H288.475C289.307 27.792 289.899 28.4 289.979 29.248L290.251 32H292.347L292.075 29.008ZM288.427 22.576C289.675 22.576 290.187 23.36 290.187 24.256C290.187 25.152 289.675 25.968 288.427 25.968H286.059V22.576H288.427ZM304.157 32L299.837 20.8H297.853L293.549 32H295.725L296.685 29.392H301.005L301.965 32H304.157ZM298.861 23.504L300.365 27.6H297.357L298.861 23.504Z" fill="#FCFCFC"/>
</svg>
