<svg width="155" height="44" viewBox="0 0 155 44" fill="none" xmlns="http://www.w3.org/2000/svg">
<path d="M5.47482 28.112C6.79082 28.112 7.86882 27.44 8.23282 26.446V28H9.88482V24.346C9.88482 23.408 9.11482 22.736 8.26082 22.736H5.65682V24.15H7.64482C7.95282 24.15 8.14882 24.346 8.14882 24.654C8.14882 25.704 6.87482 26.586 5.54482 26.586C3.80882 26.586 2.46482 25.27 2.46482 23.1C2.46482 20.93 3.80882 19.684 5.57282 19.684C6.91682 19.684 7.88282 20.426 8.05082 21.532H9.91282C9.75882 19.502 7.99482 18.088 5.58682 18.088C3.03882 18.088 0.686816 19.754 0.686816 23.1C0.686816 26.446 2.99682 28.112 5.47482 28.112ZM17.8958 28V26.39H13.0658V23.772H16.8178V22.176H13.0658V19.796H17.7418V18.2H11.2178V28H17.8958ZM23.0629 28V19.796H26.0169V18.2H18.2469V19.796H21.2149V28H23.0629ZM32.8068 28.112C34.9628 28.112 36.4608 27.006 36.4608 25.186C36.4608 21.364 31.1268 22.988 31.1268 20.818C31.1268 20.132 31.7288 19.684 32.6948 19.684C33.7308 19.684 34.4028 20.258 34.4868 21.112H36.2508C36.1668 19.278 34.7668 18.088 32.6948 18.088C30.7068 18.088 29.3208 19.208 29.3208 20.818C29.3208 24.57 34.5848 23.114 34.5848 25.214C34.5848 26.082 33.8568 26.502 32.8068 26.502C31.6308 26.502 30.9028 25.802 30.8048 24.71H29.0268C29.1248 26.768 30.5808 28.112 32.8068 28.112ZM41.1779 28.112C43.4739 28.112 45.0279 26.838 45.0279 24.458V18.2H43.2919V24.472C43.2919 25.816 42.4239 26.488 41.1779 26.488C39.9319 26.488 39.0779 25.816 39.0779 24.472V18.2H37.3279V24.458C37.3279 26.838 38.8959 28.112 41.1779 28.112ZM48.1807 28V21.504L50.8547 28H52.2547L54.9147 21.504V28H56.6507V18.2H54.5227L51.5547 25.438L48.5867 18.2H46.4447V28H48.1807ZM59.9867 28V21.504L62.6607 28H64.0607L66.7207 21.504V28H68.4567V18.2H66.3287L63.3607 25.438L60.3927 18.2H58.2507V28H59.9867ZM78.4846 28L74.7046 18.2H72.9686L69.2026 28H71.1066L71.9466 25.718H75.7266L76.5666 28H78.4846ZM73.8506 20.566L75.1666 24.15H72.5346L73.8506 20.566ZM86.2678 25.382C86.1978 24.486 85.7638 23.758 85.0918 23.338C85.9038 22.918 86.4078 22.232 86.4078 21.224C86.4078 19.446 85.2038 18.2 83.1598 18.2H79.1418V28H81.0038V24.318H83.1178C83.8458 24.318 84.3638 24.85 84.4338 25.592L84.6718 28H86.5058L86.2678 25.382ZM83.0758 19.754C84.1678 19.754 84.6158 20.44 84.6158 21.224C84.6158 22.008 84.1678 22.722 83.0758 22.722H81.0038V19.754H83.0758ZM91.5957 28V23.926L94.9697 18.2H92.9817L90.6717 22.204L88.3757 18.2H86.3737L89.7477 23.926V28H91.5957Z" fill="#1A1B1C"/>
<path d="M154.293 22L133 43.293L111.707 22L133 0.707031L154.293 22Z" stroke="#1A1B1C"/>
<path d="M139.143 22L129.714 27.4436V16.5564L139.143 22Z" fill="#1A1B1C"/>
</svg>
