<svg width="210" height="93" viewBox="0 0 210 93" fill="none" xmlns="http://www.w3.org/2000/svg">
<path d="M70.7771 63L66.8711 53.2H65.7931L61.8871 63H63.1331L64.1551 60.354H68.5231L69.5311 63H70.7771ZM66.3391 54.67L68.1031 59.29H64.5611L66.3391 54.67ZM77.9795 63V61.922H73.0795V53.2H71.8895V63H77.9795ZM85.3076 63V61.922H80.4076V53.2H79.2176V63H85.3076ZM90.5033 63.112C93.2613 63.112 95.3193 60.984 95.3193 58.1C95.3193 55.216 93.2613 53.088 90.5033 53.088C87.7453 53.088 85.7013 55.216 85.7013 58.1C85.7013 60.984 87.7453 63.112 90.5033 63.112ZM90.5033 62.034C88.4453 62.034 86.9333 60.354 86.9333 58.1C86.9333 55.846 88.4453 54.166 90.5033 54.166C92.5613 54.166 94.0873 55.846 94.0873 58.1C94.0873 60.354 92.5613 62.034 90.5033 62.034ZM100.067 63L102.503 55.034L104.925 63H106.157L109.153 53.2H107.935L105.499 61.194L103.035 53.2H101.971L99.4933 61.194L97.0853 53.2H95.8393L98.8773 63H100.067ZM121.801 63L117.895 53.2H116.817L112.911 63H114.157L115.179 60.354H119.547L120.555 63H121.801ZM117.363 54.67L119.127 59.29H115.585L117.363 54.67ZM122.912 62.244C122.912 61.8987 122.996 61.656 123.164 61.516C123.332 61.376 123.533 61.306 123.766 61.306C124.009 61.306 124.214 61.376 124.382 61.516C124.56 61.656 124.648 61.8987 124.648 62.244C124.648 62.58 124.56 62.8227 124.382 62.972C124.214 63.1213 124.009 63.196 123.766 63.196C123.533 63.196 123.332 63.1213 123.164 62.972C122.996 62.8227 122.912 62.58 122.912 62.244ZM127.876 63V53.2H126.686V63H127.876ZM129.926 62.244C129.926 61.8987 130.01 61.656 130.178 61.516C130.346 61.376 130.547 61.306 130.78 61.306C131.023 61.306 131.228 61.376 131.396 61.516C131.573 61.656 131.662 61.8987 131.662 62.244C131.662 62.58 131.573 62.8227 131.396 62.972C131.228 63.1213 131.023 63.196 130.78 63.196C130.547 63.196 130.346 63.1213 130.178 62.972C130.01 62.8227 129.926 62.58 129.926 62.244ZM29.9255 87L26.0195 77.2H24.9415L21.0355 87H22.2815L23.3035 84.354H27.6715L28.6795 87H29.9255ZM25.4875 78.67L27.2515 83.29H23.7095L25.4875 78.67ZM35.0072 87.112C37.1772 87.112 38.9272 85.782 39.1372 83.948H37.9052C37.7652 85.152 36.5332 86.034 35.0072 86.034C32.9632 86.034 31.5212 84.648 31.5212 82.1C31.5212 79.552 32.9632 78.166 35.0072 78.166C36.5052 78.166 37.7232 79.048 37.8912 80.252H39.1512C38.8852 78.418 37.1352 77.088 35.0072 77.088C32.5712 77.088 30.2892 78.712 30.2892 82.1C30.2892 85.474 32.5572 87.112 35.0072 87.112ZM44.9193 87.112C47.0893 87.112 48.8393 85.782 49.0493 83.948H47.8173C47.6773 85.152 46.4453 86.034 44.9193 86.034C42.8753 86.034 41.4333 84.648 41.4333 82.1C41.4333 79.552 42.8753 78.166 44.9193 78.166C46.4173 78.166 47.6353 79.048 47.8033 80.252H49.0633C48.7973 78.418 47.0473 77.088 44.9193 77.088C42.4833 77.088 40.2013 78.712 40.2013 82.1C40.2013 85.474 42.4693 87.112 44.9193 87.112ZM56.8474 87V85.922H51.7514V82.478H55.7694V81.4H51.7514V78.278H56.6934V77.2H50.5614V87H56.8474ZM61.6691 87.112C63.7131 87.112 65.2531 86.104 65.2531 84.326C65.2531 80.644 59.4851 82.198 59.4851 79.692C59.4851 78.754 60.2691 78.166 61.5991 78.166C62.9151 78.166 63.7691 78.88 63.8811 79.986H65.0571C64.9171 78.222 63.5591 77.088 61.5991 77.088C59.6391 77.088 58.2811 78.138 58.2811 79.692C58.2811 83.192 64.0071 81.806 64.0071 84.326C64.0071 85.516 63.0271 86.034 61.6691 86.034C60.1431 86.034 59.2471 85.152 59.1211 83.794H57.9451C58.0711 85.796 59.4711 87.112 61.6691 87.112ZM69.9816 87.112C72.0256 87.112 73.5656 86.104 73.5656 84.326C73.5656 80.644 67.7976 82.198 67.7976 79.692C67.7976 78.754 68.5816 78.166 69.9116 78.166C71.2276 78.166 72.0816 78.88 72.1936 79.986H73.3696C73.2296 78.222 71.8716 77.088 69.9116 77.088C67.9516 77.088 66.5936 78.138 66.5936 79.692C66.5936 83.192 72.3196 81.806 72.3196 84.326C72.3196 85.516 71.3396 86.034 69.9816 86.034C68.4556 86.034 67.5596 85.152 67.4336 83.794H66.2576C66.3836 85.796 67.7836 87.112 69.9816 87.112ZM82.708 87.112C84.15 87.112 85.368 86.37 85.83 85.292V87H86.936V83.64C86.936 82.52 85.914 81.96 85.2 81.96H82.778V82.996H84.99C85.466 82.996 85.76 83.29 85.76 83.738C85.76 85.152 84.332 86.062 82.722 86.062C80.706 86.062 79.222 84.634 79.222 82.1C79.222 79.552 80.706 78.166 82.722 78.166C84.234 78.166 85.466 79.048 85.69 80.294H86.95C86.726 78.418 84.976 77.088 82.736 77.088C80.3 77.088 78.004 78.754 78.004 82.1C78.004 85.446 80.286 87.112 82.708 87.112ZM96.6306 87L92.7246 77.2H91.6466L87.7406 87H88.9866L90.0086 84.354H94.3766L95.3846 87H96.6306ZM92.1926 78.67L93.9566 83.29H90.4146L92.1926 78.67ZM103.833 87V85.922H98.933V77.2H97.743V87H103.833ZM111.161 87V85.922H106.261V77.2H105.071V87H111.161ZM118.685 87V85.922H113.589V82.478H117.607V81.4H113.589V78.278H118.531V77.2H112.399V87H118.685ZM125.621 82.352C126.545 81.918 127.161 81.148 127.161 80.07C127.161 78.362 125.971 77.2 124.039 77.2H120.329V87H121.519V83.01H124.179C125.103 83.01 125.719 83.682 125.775 84.634L125.943 87H127.091L126.923 84.564C126.853 83.57 126.391 82.772 125.621 82.352ZM124.039 78.264C125.411 78.264 125.929 79.104 125.929 80.07C125.929 81.036 125.411 81.932 124.039 81.932H121.519V78.264H124.039ZM132.46 87V82.898L135.932 77.2H134.574L131.872 81.75L129.156 77.2H127.798L131.27 82.898V87H132.46Z" fill="#1A1B1C"/>
<path fill-rule="evenodd" clip-rule="evenodd" d="M144.669 56.874C144.669 56.0456 145.341 55.374 146.169 55.374C146.998 55.374 147.669 56.0456 147.669 56.874C147.669 57.7025 146.998 58.374 146.169 58.374C145.341 58.374 144.669 57.7025 144.669 56.874ZM143.669 56.874C143.669 55.4933 144.788 54.374 146.169 54.374C146.686 54.374 147.166 54.5306 147.564 54.799L209.337 -1.52588e-05L210.001 0.748062L148.266 55.5127C148.521 55.9044 148.669 56.3719 148.669 56.874C148.669 58.2547 147.55 59.374 146.169 59.374C144.788 59.374 143.669 58.2547 143.669 56.874Z" fill="#1A1B1C"/>
</svg>
