<svg width="95" height="35" viewBox="0 0 95 35" fill="none" xmlns="http://www.w3.org/2000/svg">
<rect width="95" height="35" fill="#1A1B1C"/>
<path d="M21.362 23.112C23.77 23.112 25.562 21.726 25.758 19.696H23.91C23.742 20.76 22.706 21.502 21.362 21.502C19.654 21.502 18.366 20.326 18.366 18.1C18.366 15.874 19.654 14.684 21.362 14.684C22.678 14.684 23.714 15.426 23.854 16.504H25.786C25.52 14.474 23.728 13.088 21.362 13.088C18.8 13.088 16.504 14.768 16.504 18.1C16.504 21.432 18.758 23.112 21.362 23.112ZM31.3519 23.112C34.1939 23.112 36.2939 20.984 36.2939 18.1C36.2939 15.216 34.1939 13.088 31.3519 13.088C28.4959 13.088 26.3959 15.216 26.3959 18.1C26.3959 20.984 28.4959 23.112 31.3519 23.112ZM31.3379 21.502C29.5599 21.502 28.2579 20.06 28.2579 18.1C28.2579 16.14 29.5599 14.684 31.3379 14.684C33.1299 14.684 34.4319 16.14 34.4319 18.1C34.4319 20.06 33.1299 21.502 31.3379 21.502ZM39.308 23V16.098L43.564 23H45.552V13.2H43.704V20.116L39.462 13.2H37.46V23H39.308ZM48.9948 23V18.884H52.7468V17.288H48.9948V14.796H53.6708V13.2H47.1468V23H48.9948ZM56.6995 23V13.2H54.8375V23H56.6995ZM65.416 20.382C65.346 19.486 64.912 18.758 64.24 18.338C65.052 17.918 65.556 17.232 65.556 16.224C65.556 14.446 64.352 13.2 62.308 13.2H58.29V23H60.152V19.318H62.266C62.994 19.318 63.512 19.85 63.582 20.592L63.82 23H65.654L65.416 20.382ZM62.224 14.754C63.316 14.754 63.764 15.44 63.764 16.224C63.764 17.008 63.316 17.722 62.224 17.722H60.152V14.754H62.224ZM69.0155 23V16.504L71.6895 23H73.0895L75.7495 16.504V23H77.4855V13.2H75.3575L72.3895 20.438L69.4215 13.2H67.2795V23H69.0155Z" fill="#FCFCFC"/>
</svg>
