<svg width="444" height="444" viewBox="0 0 444 444" fill="none" xmlns="http://www.w3.org/2000/svg">
<rect x="221.801" y="0.00268555" width="153.876" height="153.875" transform="rotate(45 221.801 0.00268555)" fill="#E1E1E2"/>
<path d="M165.298 114.972C168.402 114.972 171.042 113.116 171.042 109.372C171.042 105.628 168.402 103.772 165.298 103.772L161.666 103.772L161.666 114.972L165.298 114.972ZM163.778 105.596L165.122 105.596C167.058 105.596 168.898 106.604 168.898 109.372C168.898 112.14 167.058 113.132 165.122 113.132L163.778 113.132L163.778 105.596ZM180.009 114.972L180.009 113.132L174.489 113.132L174.489 110.14L178.777 110.14L178.777 108.316L174.489 108.316L174.489 105.596L179.833 105.596L179.833 103.772L172.377 103.772L172.377 114.972L180.009 114.972ZM183.323 114.972L183.323 107.548L186.379 114.972L187.979 114.972L191.019 107.548L191.019 114.972L193.003 114.972L193.003 103.772L190.571 103.772L187.179 112.044L183.787 103.772L181.339 103.772L181.339 114.972L183.323 114.972ZM199.999 115.1C203.247 115.1 205.647 112.668 205.647 109.372C205.647 106.076 203.247 103.644 199.999 103.644C196.735 103.644 194.335 106.076 194.335 109.372C194.335 112.668 196.735 115.1 199.999 115.1ZM199.983 113.26C197.951 113.26 196.463 111.612 196.463 109.372C196.463 107.132 197.951 105.468 199.983 105.468C202.031 105.468 203.519 107.132 203.519 109.372C203.519 111.612 202.031 113.26 199.983 113.26ZM211.956 115.1C213.46 115.1 214.692 114.332 215.108 113.196L215.108 114.972L216.996 114.972L216.996 110.796C216.996 109.724 216.116 108.956 215.14 108.956L212.164 108.956L212.164 110.572L214.436 110.572C214.788 110.572 215.012 110.796 215.012 111.148C215.012 112.348 213.556 113.356 212.036 113.356C210.052 113.356 208.516 111.852 208.516 109.372C208.516 106.892 210.052 105.468 212.068 105.468C213.604 105.468 214.708 106.316 214.9 107.58L217.028 107.58C216.852 105.26 214.836 103.644 212.084 103.644C209.172 103.644 206.484 105.548 206.484 109.372C206.484 113.196 209.124 115.1 211.956 115.1ZM226.663 111.98C226.583 110.956 226.087 110.124 225.319 109.644C226.247 109.164 226.823 108.38 226.823 107.228C226.823 105.196 225.447 103.772 223.111 103.772L218.519 103.772L218.519 114.972L220.647 114.972L220.647 110.764L223.063 110.764C223.895 110.764 224.487 111.372 224.567 112.22L224.839 114.972L226.935 114.972L226.663 111.98ZM223.015 105.548C224.263 105.548 224.775 106.332 224.775 107.228C224.775 108.124 224.263 108.94 223.015 108.94L220.647 108.94L220.647 105.548L223.015 105.548ZM238.425 114.972L234.105 103.772L232.121 103.772L227.817 114.972L229.993 114.972L230.953 112.364L235.273 112.364L236.233 114.972L238.425 114.972ZM233.129 106.476L234.633 110.572L231.625 110.572L233.129 106.476ZM241.304 114.972L241.304 110.716L243.672 110.716C246.008 110.716 247.4 109.276 247.4 107.244C247.4 105.212 246.008 103.772 243.672 103.772L239.176 103.772L239.176 114.972L241.304 114.972ZM241.304 105.548L243.576 105.548C244.824 105.548 245.336 106.348 245.336 107.244C245.336 108.14 244.824 108.94 243.576 108.94L241.304 108.94L241.304 105.548ZM255.554 108.316L250.562 108.316L250.562 103.772L248.45 103.772L248.45 114.972L250.562 114.972L250.562 110.156L255.554 110.156L255.554 114.972L257.666 114.972L257.666 103.772L255.554 103.772L255.554 108.316ZM261.617 114.972L261.617 103.772L259.489 103.772L259.489 114.972L261.617 114.972ZM268.491 115.1C271.243 115.1 273.291 113.516 273.515 111.196L271.403 111.196C271.211 112.412 270.027 113.26 268.491 113.26C266.539 113.26 265.067 111.916 265.067 109.372C265.067 106.828 266.539 105.468 268.491 105.468C269.995 105.468 271.179 106.316 271.339 107.548L273.547 107.548C273.243 105.228 271.195 103.644 268.491 103.644C265.563 103.644 262.939 105.564 262.939 109.372C262.939 113.18 265.515 115.1 268.491 115.1ZM278.42 115.1C280.884 115.1 282.596 113.836 282.596 111.756C282.596 107.388 276.5 109.244 276.5 106.764C276.5 105.98 277.188 105.468 278.292 105.468C279.476 105.468 280.244 106.124 280.34 107.1L282.356 107.1C282.26 105.004 280.66 103.644 278.292 103.644C276.02 103.644 274.436 104.924 274.436 106.764C274.436 111.052 280.452 109.388 280.452 111.788C280.452 112.78 279.62 113.26 278.42 113.26C277.076 113.26 276.244 112.46 276.132 111.212L274.1 111.212C274.212 113.564 275.876 115.1 278.42 115.1Z" fill="#1A1B1C"/>
<rect x="108.809" y="112.99" width="153.876" height="153.875" transform="rotate(45 108.809 112.99)" fill="#F3F3F4"/>
<path d="M76.4873 216.09C78.9513 216.09 80.6633 214.826 80.6633 212.746C80.6633 208.378 74.5673 210.234 74.5673 207.754C74.5673 206.97 75.2553 206.458 76.3593 206.458C77.5433 206.458 78.3113 207.114 78.4073 208.09L80.4233 208.09C80.3273 205.994 78.7273 204.634 76.3593 204.634C74.0873 204.634 72.5033 205.914 72.5033 207.754C72.5033 212.042 78.5193 210.378 78.5193 212.778C78.5193 213.77 77.6873 214.25 76.4873 214.25C75.1433 214.25 74.3113 213.45 74.1993 212.202L72.1673 212.202C72.2793 214.554 73.9433 216.09 76.4873 216.09ZM91.5423 215.962L87.0143 209.21L91.1263 204.762L88.4863 204.762L83.9903 209.642L83.9903 204.762L81.8623 204.762L81.8623 215.962L83.9903 215.962L83.9903 212.474L85.5583 210.778L88.9183 215.962L91.5423 215.962ZM94.5297 215.962L94.5297 204.762L92.4017 204.762L92.4017 215.962L94.5297 215.962ZM98.4593 215.962L98.4593 208.074L103.323 215.962L105.595 215.962L105.595 204.762L103.483 204.762L103.483 212.666L98.6353 204.762L96.3473 204.762L96.3473 215.962L98.4593 215.962ZM115.174 215.962L115.174 206.586L118.55 206.586L118.55 204.762L109.67 204.762L109.67 206.586L113.062 206.586L113.062 215.962L115.174 215.962ZM124.378 215.962L124.378 211.306L128.234 204.762L125.962 204.762L123.322 209.338L120.698 204.762L118.41 204.762L122.266 211.306L122.266 215.962L124.378 215.962ZM130.867 215.962L130.867 211.706L133.235 211.706C135.571 211.706 136.963 210.266 136.963 208.234C136.963 206.202 135.571 204.762 133.235 204.762L128.739 204.762L128.739 215.962L130.867 215.962ZM130.867 206.538L133.139 206.538C134.387 206.538 134.899 207.338 134.899 208.234C134.899 209.13 134.387 209.93 133.139 209.93L130.867 209.93L130.867 206.538ZM145.645 215.962L145.645 214.122L140.125 214.122L140.125 211.13L144.413 211.13L144.413 209.306L140.125 209.306L140.125 206.586L145.469 206.586L145.469 204.762L138.013 204.762L138.013 215.962L145.645 215.962ZM84.0765 239.962C87.1805 239.962 89.8205 238.106 89.8205 234.362C89.8205 230.618 87.1805 228.762 84.0765 228.762L80.4445 228.762L80.4445 239.962L84.0765 239.962ZM82.5565 230.586L83.9005 230.586C85.8365 230.586 87.6765 231.594 87.6765 234.362C87.6765 237.13 85.8365 238.122 83.9005 238.122L82.5565 238.122L82.5565 230.586ZM98.7877 239.962L98.7877 238.122L93.2677 238.122L93.2677 235.13L97.5557 235.13L97.5557 233.306L93.2677 233.306L93.2677 230.586L98.6117 230.586L98.6117 228.762L91.1557 228.762L91.1557 239.962L98.7877 239.962ZM104.693 239.962L104.693 230.586L108.069 230.586L108.069 228.762L99.189 228.762L99.189 230.586L102.581 230.586L102.581 239.962L104.693 239.962ZM117.116 239.962L112.796 228.762L110.812 228.762L106.508 239.962L108.684 239.962L109.644 237.354L113.964 237.354L114.924 239.962L117.116 239.962ZM111.82 231.466L113.324 235.562L110.316 235.562L111.82 231.466ZM119.996 239.962L119.996 228.762L117.868 228.762L117.868 239.962L119.996 239.962ZM129.173 239.962L129.173 238.122L123.941 238.122L123.941 228.762L121.813 228.762L121.813 239.962L129.173 239.962ZM133.642 240.09C136.106 240.09 137.818 238.826 137.818 236.746C137.818 232.378 131.722 234.234 131.722 231.754C131.722 230.97 132.41 230.458 133.514 230.458C134.698 230.458 135.466 231.114 135.562 232.09L137.578 232.09C137.482 229.994 135.882 228.634 133.514 228.634C131.242 228.634 129.658 229.914 129.658 231.754C129.658 236.042 135.674 234.378 135.674 236.778C135.674 237.77 134.842 238.25 133.642 238.25C132.298 238.25 131.466 237.45 131.354 236.202L129.322 236.202C129.434 238.554 131.098 240.09 133.642 240.09Z" fill="#1A1B1C"/>
<rect x="333.6" y="112.99" width="153.876" height="153.875" transform="rotate(45 333.6 112.99)" fill="#F3F3F4"/>
<path d="M300.488 216.128C303.24 216.128 305.288 214.544 305.512 212.224L303.4 212.224C303.208 213.44 302.024 214.288 300.488 214.288C298.536 214.288 297.064 212.944 297.064 210.4C297.064 207.856 298.536 206.496 300.488 206.496C301.992 206.496 303.176 207.344 303.336 208.576L305.544 208.576C305.24 206.256 303.192 204.672 300.488 204.672C297.56 204.672 294.936 206.592 294.936 210.4C294.936 214.208 297.512 216.128 300.488 216.128ZM311.905 216.128C315.153 216.128 317.553 213.696 317.553 210.4C317.553 207.104 315.153 204.672 311.905 204.672C308.641 204.672 306.241 207.104 306.241 210.4C306.241 213.696 308.641 216.128 311.905 216.128ZM311.889 214.288C309.857 214.288 308.369 212.64 308.369 210.4C308.369 208.16 309.857 206.496 311.889 206.496C313.937 206.496 315.425 208.16 315.425 210.4C315.425 212.64 313.937 214.288 311.889 214.288ZM322.566 216.128C325.03 216.128 326.742 214.864 326.742 212.784C326.742 208.416 320.646 210.272 320.646 207.792C320.646 207.008 321.334 206.496 322.438 206.496C323.622 206.496 324.39 207.152 324.486 208.128L326.502 208.128C326.406 206.032 324.806 204.672 322.438 204.672C320.166 204.672 318.582 205.952 318.582 207.792C318.582 212.08 324.598 210.416 324.598 212.816C324.598 213.808 323.766 214.288 322.566 214.288C321.222 214.288 320.39 213.488 320.278 212.24L318.246 212.24C318.358 214.592 320.022 216.128 322.566 216.128ZM329.925 216L329.925 208.576L332.981 216L334.581 216L337.621 208.576L337.621 216L339.605 216L339.605 204.8L337.173 204.8L333.781 213.072L330.389 204.8L327.941 204.8L327.941 216L329.925 216ZM349.066 216L349.066 214.16L343.546 214.16L343.546 211.168L347.834 211.168L347.834 209.344L343.546 209.344L343.546 206.624L348.89 206.624L348.89 204.8L341.434 204.8L341.434 216L349.066 216ZM354.971 216L354.971 206.624L358.347 206.624L358.347 204.8L349.467 204.8L349.467 206.624L352.859 206.624L352.859 216L354.971 216ZM361.187 216L361.187 204.8L359.059 204.8L359.059 216L361.187 216ZM368.061 216.128C370.813 216.128 372.861 214.544 373.085 212.224L370.973 212.224C370.781 213.44 369.597 214.288 368.061 214.288C366.109 214.288 364.637 212.944 364.637 210.4C364.637 207.856 366.109 206.496 368.061 206.496C369.565 206.496 370.749 207.344 370.909 208.576L373.117 208.576C372.813 206.256 370.765 204.672 368.061 204.672C365.133 204.672 362.509 206.592 362.509 210.4C362.509 214.208 365.085 216.128 368.061 216.128ZM297.18 240.128C299.932 240.128 301.98 238.544 302.204 236.224L300.092 236.224C299.9 237.44 298.716 238.288 297.18 238.288C295.228 238.288 293.756 236.944 293.756 234.4C293.756 231.856 295.228 230.496 297.18 230.496C298.684 230.496 299.868 231.344 300.028 232.576L302.236 232.576C301.932 230.256 299.884 228.672 297.18 228.672C294.252 228.672 291.628 230.592 291.628 234.4C291.628 238.208 294.204 240.128 297.18 240.128ZM308.597 240.128C311.845 240.128 314.245 237.696 314.245 234.4C314.245 231.104 311.845 228.672 308.597 228.672C305.333 228.672 302.933 231.104 302.933 234.4C302.933 237.696 305.333 240.128 308.597 240.128ZM308.581 238.288C306.549 238.288 305.061 236.64 305.061 234.4C305.061 232.16 306.549 230.496 308.581 230.496C310.629 230.496 312.117 232.16 312.117 234.4C312.117 236.64 310.629 238.288 308.581 238.288ZM317.69 240L317.69 232.112L322.554 240L324.826 240L324.826 228.8L322.714 228.8L322.714 236.704L317.866 228.8L315.578 228.8L315.578 240L317.69 240ZM331.704 240.128C334.456 240.128 336.504 238.544 336.728 236.224L334.616 236.224C334.424 237.44 333.24 238.288 331.704 238.288C329.752 238.288 328.28 236.944 328.28 234.4C328.28 231.856 329.752 230.496 331.704 230.496C333.208 230.496 334.392 231.344 334.552 232.576L336.76 232.576C336.456 230.256 334.408 228.672 331.704 228.672C328.776 228.672 326.152 230.592 326.152 234.4C326.152 238.208 328.728 240.128 331.704 240.128ZM345.57 240L345.57 238.16L340.05 238.16L340.05 235.168L344.338 235.168L344.338 233.344L340.05 233.344L340.05 230.624L345.394 230.624L345.394 228.8L337.938 228.8L337.938 240L345.57 240ZM355.043 237.008C354.963 235.984 354.467 235.152 353.699 234.672C354.627 234.192 355.203 233.408 355.203 232.256C355.203 230.224 353.827 228.8 351.491 228.8L346.899 228.8L346.899 240L349.027 240L349.027 235.792L351.443 235.792C352.275 235.792 352.867 236.4 352.947 237.248L353.219 240L355.315 240L355.043 237.008ZM351.395 230.576C352.643 230.576 353.155 231.36 353.155 232.256C353.155 233.152 352.643 233.968 351.395 233.968L349.027 233.968L349.027 230.576L351.395 230.576ZM359.285 240L359.285 232.112L364.149 240L366.421 240L366.421 228.8L364.309 228.8L364.309 236.704L359.461 228.8L357.173 228.8L357.173 240L359.285 240ZM371.923 240.128C374.387 240.128 376.099 238.864 376.099 236.784C376.099 232.416 370.003 234.272 370.003 231.792C370.003 231.008 370.691 230.496 371.795 230.496C372.979 230.496 373.747 231.152 373.843 232.128L375.859 232.128C375.763 230.032 374.163 228.672 371.795 228.672C369.523 228.672 367.939 229.952 367.939 231.792C367.939 236.08 373.955 234.416 373.955 236.816C373.955 237.808 373.123 238.288 371.923 238.288C370.579 238.288 369.747 237.488 369.635 236.24L367.603 236.24C367.715 238.592 369.379 240.128 371.923 240.128Z" fill="#1A1B1C"/>
<rect x="221.795" y="225.981" width="153.876" height="153.875" transform="rotate(45 221.795 225.981)" fill="#F3F3F4"/>
<path d="M190.797 341L193.181 333.08L195.565 341L197.645 341L200.989 329.8L198.861 329.8L196.525 337.88L194.077 329.8L192.269 329.8L189.837 337.88L187.517 329.8L185.373 329.8L188.733 341L190.797 341ZM209.657 341L209.657 339.16L204.137 339.16L204.137 336.168L208.425 336.168L208.425 334.344L204.137 334.344L204.137 331.624L209.481 331.624L209.481 329.8L202.025 329.8L202.025 341L209.657 341ZM220.618 341L216.298 329.8L214.314 329.8L210.01 341L212.186 341L213.146 338.392L217.466 338.392L218.426 341L220.618 341ZM215.322 332.504L216.826 336.6L213.818 336.6L215.322 332.504ZM224.555 341L224.555 331.624L227.931 331.624L227.931 329.8L219.051 329.8L219.051 331.624L222.443 331.624L222.443 341L224.555 341ZM235.747 334.344L230.755 334.344L230.755 329.8L228.643 329.8L228.643 341L230.755 341L230.755 336.184L235.747 336.184L235.747 341L237.859 341L237.859 329.8L235.747 329.8L235.747 334.344ZM247.314 341L247.314 339.16L241.794 339.16L241.794 336.168L246.082 336.168L246.082 334.344L241.794 334.344L241.794 331.624L247.138 331.624L247.138 329.8L239.682 329.8L239.682 341L247.314 341ZM256.788 338.008C256.708 336.984 256.212 336.152 255.444 335.672C256.372 335.192 256.948 334.408 256.948 333.256C256.948 331.224 255.572 329.8 253.236 329.8L248.644 329.8L248.644 341L250.772 341L250.772 336.792L253.188 336.792C254.02 336.792 254.612 337.4 254.692 338.248L254.964 341L257.06 341L256.788 338.008ZM253.14 331.576C254.388 331.576 254.9 332.36 254.9 333.256C254.9 334.152 254.388 334.968 253.14 334.968L250.772 334.968L250.772 331.576L253.14 331.576Z" fill="#1A1B1C"/>
</svg>
