<svg width="1168" height="544" viewBox="0 0 1168 544" fill="none" xmlns="http://www.w3.org/2000/svg">
<path d="M0 0H1168V544H0C0 331.555 0 212.445 0 0Z" fill="#F3F3F4"/>
<rect width="1168" height="1" rx="0.5" fill="#1A1B1C"/>
<path d="M35.92 56V52.92H21.36V43.08H32.84V40H21.36V31.08H35.48V28H17.96V56H35.92ZM45.7056 35.52C41.1856 35.52 37.5056 38.4 37.1456 42.28H40.1856C40.3456 40.08 42.6656 38.24 45.6256 38.24C49.0656 38.24 51.0256 40.12 51.0256 42.88C51.0256 43.52 50.6256 43.96 49.7456 43.96H45.1856C40.3056 43.96 37.1456 46.4 37.1456 50.24C37.1456 53.92 39.9056 56.32 44.1456 56.32C47.2656 56.32 49.9456 54.84 51.0256 52.52V56H54.2256V43C54.2256 38.52 50.9456 35.52 45.7056 35.52ZM44.6256 53.6C42.0656 53.6 40.4256 52.28 40.4256 50.2C40.4256 47.84 42.3856 46.4 45.3856 46.4H51.0256V46.92C51.0256 51.08 48.6656 53.6 44.6256 53.6ZM63.9603 56.32C68.4003 56.32 71.3603 54 71.3603 50.4C71.3603 41.16 59.5603 46.56 59.5603 41.12C59.5603 39.36 61.1203 38.24 63.4803 38.24C65.3203 38.24 67.8403 39.12 68.1203 41.68H71.2403C71.0003 37.96 68.0003 35.52 63.5603 35.52C59.3203 35.52 56.4403 37.76 56.4403 41.16C56.4403 49.88 68.1603 44.48 68.1603 50.48C68.1603 52.12 66.4803 53.52 63.9603 53.52C61.0403 53.52 59.2803 52.12 59.0003 49.52H55.9203C56.2403 53.72 59.2803 56.32 63.9603 56.32ZM75.6759 35.84H71.4759V38.68H75.6759V49.68C75.6759 53.6 78.1559 56 81.9959 56H85.0759V53.08H82.1159C80.1559 53.08 78.8759 51.76 78.8759 49.52V38.68H85.0759V35.84H78.8759V29.4H75.6759V35.84ZM101.885 35.52C97.3653 35.52 93.6853 38.4 93.3253 42.28H96.3653C96.5253 40.08 98.8453 38.24 101.805 38.24C105.245 38.24 107.205 40.12 107.205 42.88C107.205 43.52 106.805 43.96 105.925 43.96H101.365C96.4853 43.96 93.3253 46.4 93.3253 50.24C93.3253 53.92 96.0853 56.32 100.325 56.32C103.445 56.32 106.125 54.84 107.205 52.52V56H110.405V43C110.405 38.52 107.125 35.52 101.885 35.52ZM100.805 53.6C98.2453 53.6 96.6053 52.28 96.6053 50.2C96.6053 47.84 98.5653 46.4 101.565 46.4H107.205V46.92C107.205 51.08 104.845 53.6 100.805 53.6ZM120.14 56.32C124.58 56.32 127.54 54 127.54 50.4C127.54 41.16 115.74 46.56 115.74 41.12C115.74 39.36 117.3 38.24 119.66 38.24C121.5 38.24 124.02 39.12 124.3 41.68H127.42C127.18 37.96 124.18 35.52 119.74 35.52C115.5 35.52 112.62 37.76 112.62 41.16C112.62 49.88 124.34 44.48 124.34 50.48C124.34 52.12 122.66 53.52 120.14 53.52C117.22 53.52 115.46 52.12 115.18 49.52H112.1C112.42 53.72 115.46 56.32 120.14 56.32ZM129.649 32.24H133.369V27.52H129.649V32.24ZM133.129 56V35.84H129.929V56H133.129ZM144.206 35.52C139.686 35.52 136.006 38.4 135.646 42.28H138.686C138.846 40.08 141.166 38.24 144.126 38.24C147.566 38.24 149.526 40.12 149.526 42.88C149.526 43.52 149.126 43.96 148.246 43.96H143.686C138.806 43.96 135.646 46.4 135.646 50.24C135.646 53.92 138.406 56.32 142.646 56.32C145.766 56.32 148.446 54.84 149.526 52.52V56H152.726V43C152.726 38.52 149.446 35.52 144.206 35.52ZM143.126 53.6C140.566 53.6 138.926 52.28 138.926 50.2C138.926 47.84 140.886 46.4 143.886 46.4H149.526V46.92C149.526 51.08 147.166 53.6 143.126 53.6ZM158.66 56V45.12C158.66 41.2 161.14 38.44 164.58 38.44C167.62 38.44 169.62 40.76 169.62 44.2V56H172.82V43.68C172.82 38.76 169.86 35.52 165.3 35.52C162.22 35.52 159.7 36.92 158.66 39.72V35.84H155.46V56H158.66Z" fill="#1A1B1C"/>
<path d="M960 137.5C985.017 137.5 1009.79 142.427 1032.9 152.001C1056.01 161.574 1077.01 175.607 1094.7 193.296C1112.39 210.986 1126.43 231.986 1136 255.099C1145.57 278.211 1150.5 302.983 1150.5 328C1150.5 353.017 1145.57 377.789 1136 400.901C1126.43 424.014 1112.39 445.014 1094.7 462.704C1077.01 480.393 1056.01 494.426 1032.9 503.999C1009.79 513.573 985.017 518.5 960 518.5C934.983 518.5 910.211 513.573 887.099 503.999C863.986 494.425 842.986 480.393 825.296 462.704C807.607 445.014 793.574 424.014 784.001 400.901C774.427 377.789 769.5 353.017 769.5 328C769.5 302.983 774.427 278.211 784.001 255.099C793.575 231.986 807.607 210.986 825.296 193.296C842.986 175.607 863.986 161.574 887.099 152.001C910.211 142.427 934.983 137.5 960 137.5L960 137.5Z" stroke="#C1C2C3" stroke-width="3"/>
<path d="M960 137.5C1009.49 137.5 1057.03 156.758 1092.57 191.197C1128.11 225.636 1148.85 272.553 1150.41 322.016C1151.96 371.479 1134.21 419.606 1100.9 456.209C1067.59 492.811 1021.35 515.017 971.962 518.124C922.572 521.231 873.911 504.997 836.28 472.857C798.649 440.718 775.003 395.196 770.345 345.928C765.688 296.66 780.386 247.513 811.328 208.891C842.27 170.27 887.027 145.205 936.124 139.002" stroke="#1A1B1C" stroke-width="3"/>
<path d="M945.32 332.684C948.4 332.684 951.48 330.884 952.64 328.324C952.4 334.484 949.4 339.284 944.88 339.284C941.56 339.284 939.28 337.564 938.68 334.844H935.28C936 339.244 939.8 342.324 944.96 342.324C951.12 342.324 955.84 337.004 955.84 326.484C955.84 318.763 951.88 313.644 945.48 313.644C939.68 313.644 935.44 317.643 935.44 323.163C935.44 328.644 939.52 332.684 945.32 332.684ZM945.44 316.723C949.24 316.723 951.92 319.404 951.92 323.204C951.92 326.924 949.24 329.604 945.44 329.604C941.64 329.604 938.96 326.924 938.96 323.204C938.96 319.404 941.64 316.723 945.44 316.723ZM968.957 323.243C965.837 323.243 962.797 325.003 961.597 327.603C961.877 321.444 964.877 316.644 969.357 316.644C972.677 316.644 974.957 318.363 975.557 321.084H978.997C978.237 316.644 974.477 313.603 969.317 313.603C963.117 313.603 958.397 318.923 958.397 329.444C958.397 337.164 962.397 342.284 968.797 342.284C974.557 342.284 978.797 338.284 978.797 332.764C978.797 327.284 974.757 323.243 968.957 323.243ZM968.797 339.204C965.037 339.204 962.317 336.484 962.317 332.724C962.317 329.004 965.037 326.323 968.797 326.323C972.597 326.323 975.277 329.004 975.277 332.724C975.277 336.484 972.597 339.204 968.797 339.204Z" fill="#1A1B1C"/>
<path d="M987.68 306.624C988.864 306.624 989.76 307.096 990.368 308.04C990.976 308.968 991.28 310.28 991.28 311.976C991.28 313.672 990.984 315 990.392 315.96C989.816 316.904 988.912 317.376 987.68 317.376C986.928 317.376 986.288 317.16 985.76 316.728C985.232 316.296 984.832 315.68 984.56 314.88C984.304 314.064 984.176 313.096 984.176 311.976C984.176 310.28 984.456 308.968 985.016 308.04C985.576 307.096 986.464 306.624 987.68 306.624ZM987.68 308.112C987.072 308.112 986.624 308.44 986.336 309.096C986.064 309.736 985.928 310.696 985.928 311.976C985.928 313.256 986.064 314.224 986.336 314.88C986.624 315.536 987.072 315.864 987.68 315.864C988.304 315.864 988.768 315.544 989.072 314.904C989.376 314.248 989.528 313.272 989.528 311.976C989.528 310.696 989.376 309.736 989.072 309.096C988.768 308.44 988.304 308.112 987.68 308.112ZM998.648 306.864L989.144 324H987.296L996.8 306.864H998.648ZM998.168 313.488C998.952 313.488 999.608 313.704 1000.14 314.136C1000.66 314.552 1001.06 315.16 1001.34 315.96C1001.62 316.744 1001.77 317.704 1001.77 318.84C1001.77 320.536 1001.47 321.864 1000.88 322.824C1000.3 323.768 999.4 324.24 998.168 324.24C997.416 324.24 996.776 324.024 996.248 323.592C995.72 323.16 995.32 322.544 995.048 321.744C994.792 320.928 994.664 319.96 994.664 318.84C994.664 317.144 994.944 315.832 995.504 314.904C996.064 313.96 996.952 313.488 998.168 313.488ZM998.168 315C997.56 315 997.112 315.32 996.824 315.96C996.552 316.6 996.416 317.56 996.416 318.84C996.416 320.136 996.552 321.112 996.824 321.768C997.112 322.408 997.56 322.728 998.168 322.728C998.792 322.728 999.256 322.408 999.56 321.768C999.864 321.128 1000.02 320.152 1000.02 318.84C1000.02 317.56 999.864 316.6 999.56 315.96C999.256 315.32 998.792 315 998.168 315Z" fill="#1A1B1C"/>
</svg>
