<svg width="74" height="36" viewBox="0 0 74 36" fill="none" xmlns="http://www.w3.org/2000/svg">
<rect x="0.5" y="0.5" width="73" height="35" stroke="#1A1B1C"/>
<path d="M24.564 20.882C24.494 19.986 24.06 19.258 23.388 18.838C24.2 18.418 24.704 17.732 24.704 16.724C24.704 14.946 23.5 13.7 21.456 13.7H17.438V23.5H19.3V19.818H21.414C22.142 19.818 22.66 20.35 22.73 21.092L22.968 23.5H24.802L24.564 20.882ZM21.372 15.254C22.464 15.254 22.912 15.94 22.912 16.724C22.912 17.508 22.464 18.222 21.372 18.222H19.3V15.254H21.372ZM33.1055 23.5V21.89H28.2755V19.272H32.0275V17.676H28.2755V15.296H32.9515V13.7H26.4275V23.5H33.1055ZM37.4886 23.612C39.6446 23.612 41.1426 22.506 41.1426 20.686C41.1426 16.864 35.8086 18.488 35.8086 16.318C35.8086 15.632 36.4106 15.184 37.3766 15.184C38.4126 15.184 39.0846 15.758 39.1686 16.612H40.9326C40.8486 14.778 39.4486 13.588 37.3766 13.588C35.3886 13.588 34.0026 14.708 34.0026 16.318C34.0026 20.07 39.2666 18.614 39.2666 20.714C39.2666 21.582 38.5386 22.002 37.4886 22.002C36.3126 22.002 35.5846 21.302 35.4866 20.21H33.7086C33.8066 22.268 35.2626 23.612 37.4886 23.612ZM48.8698 23.5V21.89H44.0398V19.272H47.7917V17.676H44.0398V15.296H48.7158V13.7H42.1917V23.5H48.8698ZM54.0368 23.5V15.296H56.9908V13.7H49.2208V15.296H52.1888V23.5H54.0368Z" fill="#1A1B1C"/>
</svg>
