<svg width="240" height="77" viewBox="0 0 240 77" fill="none" xmlns="http://www.w3.org/2000/svg">
<path d="M81.32 18L77.414 8.2H76.336L72.43 18H73.676L74.698 15.354H79.066L80.074 18H81.32ZM76.882 9.67L78.646 14.29H75.104L76.882 9.67ZM88.5225 18V16.922H83.6225V8.2H82.4325V18H88.5225ZM95.8506 18V16.922H90.9506V8.2H89.7606V18H95.8506ZM101.046 18.112C103.804 18.112 105.862 15.984 105.862 13.1C105.862 10.216 103.804 8.088 101.046 8.088C98.2883 8.088 96.2443 10.216 96.2443 13.1C96.2443 15.984 98.2883 18.112 101.046 18.112ZM101.046 17.034C98.9883 17.034 97.4763 15.354 97.4763 13.1C97.4763 10.846 98.9883 9.166 101.046 9.166C103.104 9.166 104.63 10.846 104.63 13.1C104.63 15.354 103.104 17.034 101.046 17.034ZM110.61 18L113.046 10.034L115.468 18H116.7L119.696 8.2H118.478L116.042 16.194L113.578 8.2H112.514L110.036 16.194L107.628 8.2H106.382L109.42 18H110.61ZM132.343 18L128.437 8.2H127.359L123.453 18H124.699L125.721 15.354H130.089L131.097 18H132.343ZM127.905 9.67L129.669 14.29H126.127L127.905 9.67ZM133.455 17.244C133.455 16.8987 133.539 16.656 133.707 16.516C133.875 16.376 134.076 16.306 134.309 16.306C134.552 16.306 134.757 16.376 134.925 16.516C135.103 16.656 135.191 16.8987 135.191 17.244C135.191 17.58 135.103 17.8227 134.925 17.972C134.757 18.1213 134.552 18.196 134.309 18.196C134.076 18.196 133.875 18.1213 133.707 17.972C133.539 17.8227 133.455 17.58 133.455 17.244ZM138.419 18V8.2H137.229V18H138.419ZM140.469 17.244C140.469 16.8987 140.553 16.656 140.721 16.516C140.889 16.376 141.09 16.306 141.323 16.306C141.566 16.306 141.771 16.376 141.939 16.516C142.116 16.656 142.205 16.8987 142.205 17.244C142.205 17.58 142.116 17.8227 141.939 17.972C141.771 18.1213 141.566 18.196 141.323 18.196C141.09 18.196 140.889 18.1213 140.721 17.972C140.553 17.8227 140.469 17.58 140.469 17.244ZM76.84 42V33.278H79.962V32.2H72.5V33.278H75.636V42H76.84ZM84.8314 42.112C87.5894 42.112 89.6474 39.984 89.6474 37.1C89.6474 34.216 87.5894 32.088 84.8314 32.088C82.0734 32.088 80.0294 34.216 80.0294 37.1C80.0294 39.984 82.0734 42.112 84.8314 42.112ZM84.8314 41.034C82.7734 41.034 81.2614 39.354 81.2614 37.1C81.2614 34.846 82.7734 33.166 84.8314 33.166C86.8894 33.166 88.4154 34.846 88.4154 37.1C88.4154 39.354 86.8894 41.034 84.8314 41.034ZM97.7648 42.112C99.8088 42.112 101.349 41.104 101.349 39.326C101.349 35.644 95.5808 37.198 95.5808 34.692C95.5808 33.754 96.3648 33.166 97.6948 33.166C99.0108 33.166 99.8648 33.88 99.9768 34.986H101.153C101.013 33.222 99.6548 32.088 97.6948 32.088C95.7348 32.088 94.3768 33.138 94.3768 34.692C94.3768 38.192 100.103 36.806 100.103 39.326C100.103 40.516 99.1228 41.034 97.7648 41.034C96.2388 41.034 95.3428 40.152 95.2168 38.794H94.0408C94.1668 40.796 95.5668 42.112 97.7648 42.112ZM107.169 42.112C109.339 42.112 111.089 40.782 111.299 38.948H110.067C109.927 40.152 108.695 41.034 107.169 41.034C105.125 41.034 103.683 39.648 103.683 37.1C103.683 34.552 105.125 33.166 107.169 33.166C108.667 33.166 109.885 34.048 110.053 35.252H111.313C111.047 33.418 109.297 32.088 107.169 32.088C104.733 32.088 102.451 33.712 102.451 37.1C102.451 40.474 104.719 42.112 107.169 42.112ZM120.681 42L116.775 32.2H115.697L111.791 42H113.037L114.059 39.354H118.427L119.435 42H120.681ZM116.243 33.67L118.007 38.29H114.465L116.243 33.67ZM122.984 42V34.048L128.024 42H129.396V32.2H128.206V40.18L123.152 32.2H121.794V42H122.984ZM138.491 42V37.898L141.963 32.2H140.605L137.903 36.75L135.187 32.2H133.829L137.301 37.898V42H138.491ZM146.697 42.112C149.455 42.112 151.513 39.984 151.513 37.1C151.513 34.216 149.455 32.088 146.697 32.088C143.939 32.088 141.895 34.216 141.895 37.1C141.895 39.984 143.939 42.112 146.697 42.112ZM146.697 41.034C144.639 41.034 143.127 39.354 143.127 37.1C143.127 34.846 144.639 33.166 146.697 33.166C148.755 33.166 150.281 34.846 150.281 37.1C150.281 39.354 148.755 41.034 146.697 41.034ZM156.644 42.112C158.87 42.112 160.34 40.782 160.34 38.64V32.2H159.178V38.696C159.178 40.138 158.17 41.034 156.644 41.034C155.132 41.034 154.124 40.138 154.124 38.696V32.2H152.948V38.64C152.948 40.782 154.418 42.112 156.644 42.112ZM167.541 37.352C168.465 36.918 169.081 36.148 169.081 35.07C169.081 33.362 167.891 32.2 165.959 32.2H162.249V42H163.439V38.01H166.099C167.023 38.01 167.639 38.682 167.695 39.634L167.863 42H169.011L168.843 39.564C168.773 38.57 168.311 37.772 167.541 37.352ZM165.959 33.264C167.331 33.264 167.849 34.104 167.849 35.07C167.849 36.036 167.331 36.932 165.959 36.932H163.439V33.264H165.959ZM175.826 42V37.59H179.844V36.512H175.826V33.278H180.768V32.2H174.636V42H175.826ZM189.232 42L185.326 32.2H184.248L180.342 42H181.588L182.61 39.354H186.978L187.986 42H189.232ZM184.794 33.67L186.558 38.29H183.016L184.794 33.67ZM194.314 42.112C196.484 42.112 198.234 40.782 198.444 38.948H197.212C197.072 40.152 195.84 41.034 194.314 41.034C192.27 41.034 190.828 39.648 190.828 37.1C190.828 34.552 192.27 33.166 194.314 33.166C195.812 33.166 197.03 34.048 197.198 35.252H198.458C198.192 33.418 196.442 32.088 194.314 32.088C191.878 32.088 189.596 33.712 189.596 37.1C189.596 40.474 191.864 42.112 194.314 42.112ZM206.242 42V40.922H201.146V37.478H205.164V36.4H201.146V33.278H206.088V32.2H199.956V42H206.242Z" fill="#1A1B1C"/>
<path d="M0.332031 76L62.332 21" stroke="#1A1B1C"/>
<circle cx="63.832" cy="19.5" r="2" stroke="#1A1B1C"/>
</svg>
