<svg width="93" height="93" viewBox="0 0 93 93" fill="none" xmlns="http://www.w3.org/2000/svg">
<path d="M78.8109 13.5551C70.4575 5.18128 58.9053 0 46.1429 0C43.1895 0 40.3009 0.277469 37.5018 0.807756C42.2764 8.70637 59.7221 36.398 63.0832 41.3234C63.7357 42.2802 64.8955 40.3795 71.9208 26.836L78.8109 13.5551Z" fill="#FCFCFC"/>
<path d="M3.2308 29.1471C8.72408 15.289 20.7362 4.72462 35.4839 1.23724C37.2298 3.85604 40.5647 9.03031 44.2093 14.7923L53.4693 29.4339H27.0284C14.2688 29.4339 6.81168 29.3508 3.2308 29.1471Z" fill="#FCFCFC"/>
<path d="M10.012 74.8463C3.74462 66.9677 0 56.9926 0 46.1429C0 40.9441 0.859761 35.9461 2.44486 31.2833H17.3092C34.6945 31.2833 35.0904 31.3104 34.4692 32.4725C33.2379 34.7769 14.9665 66.4051 10.012 74.8463Z" fill="#FCFCFC"/>
<path d="M55.1069 91.4156C52.2072 91.9865 49.21 92.2857 46.1429 92.2857C32.3343 92.2857 19.9424 86.2202 11.4862 76.6081C13.3133 72.5486 18.0721 64.075 26.3143 50.1545C27.0894 48.8445 27.8749 47.9241 28.0596 48.109C28.2442 48.2934 34.7463 58.6627 42.5097 71.1508L55.1069 91.4156Z" fill="#FCFCFC"/>
<path d="M89.6717 61.4911C84.5148 76.1163 72.1958 87.3629 56.9267 91.0188C52.7211 84.5325 38.7551 62.0995 38.7551 61.7525C38.7551 61.6088 50.824 61.4911 65.5752 61.4911H89.6717Z" fill="#FCFCFC"/>
<path d="M80.0441 14.8397C87.6429 23.0651 92.2857 34.0618 92.2857 46.1429C92.2857 51.0661 91.5147 55.8092 90.0868 60.2581H74.7391C64.7669 60.2581 56.6076 60.1077 56.6076 59.9234C56.6076 59.5428 76.5794 21.1588 80.0441 14.8397Z" fill="#FCFCFC"/>
</svg>
